# xmcd
#
# Track frame offsets: 
#        150
#        23366
#        39862
#        55574
#
# Disc length: 988 seconds
#
# Revision: 1
# Processed by: cddbd v1.5.2PL0 Copyright (c) Steve Scherf et al.
# Submitted via: ExactAudioCopy v1.0b4
#
DISCID=1b03da04
DTITLE=吳國敬 - 吳國敬 (3 '' CD Single)
DYEAR=1988
DGENRE=Rock and Roll
TTITLE0=困獸 (Animal Mix)
TTITLE1=玩火 (Fire Mix)
TTITLE2=酒店大堂
TTITLE3=心的變改
EXTD=
EXTT0=
EXTT1=
EXTT2=
EXTT3=
PLAYORDER=
